<svg width="32" height="32" xmlns="http://www.w3.org/2000/svg">
 <title/>
 <desc/>

 <g>
  <title>background</title>
  <rect fill="none" id="canvas_background" height="402" width="582" y="-1" x="-1"/>
 </g>
 <g>
  <title>Layer 1</title>
  <path fill="#ffffff" id="sunset" d="m22.00663,18c0.014839,-0.16468 0.022421,-0.331461 0.022421,-0.5c0,-3.03757 -2.462431,-5.5 -5.5,-5.5c-3.03756,0 -5.500001,2.46243 -5.500001,5.5c0,0.168539 0.00758,0.33532 0.02242,0.5l1.005051,0c-0.01815,-0.164169 -0.027471,-0.330999 -0.027471,-0.5c0,-2.48528 2.01472,-4.5 4.500001,-4.5c2.485279,0 4.5,2.01472 4.5,4.5c0,0.169001 -0.009312,0.335831 -0.02746,0.5l1.005039,0l0,0l0,0zm-5.477579,-10c-0.27614,0 -0.5,0.21575 -0.5,0.49539l0,2.00922c0,0.2736 0.231939,0.49539 0.5,0.49539c0.276138,0 0.5,-0.21575 0.5,-0.49539l0,-2.00922c0,-0.2736 -0.231932,-0.49539 -0.5,-0.49539l0,0l0,0zm6.73806,2.79099c-0.195261,-0.19526 -0.506111,-0.20099 -0.703852,-0.00326l-1.420729,1.42074c-0.19346,0.19346 -0.186291,0.51429 0.00326,0.70385c0.195259,0.19526 0.506109,0.20099 0.70385,0.00326l1.420731,-1.42074c0.19346,-0.19346 0.186289,-0.51429 -0.00326,-0.70385l0,0l0,0zm2.790998,6.738061c0,-0.27614 -0.215759,-0.5 -0.49539,-0.5l-2.00922,0c-0.2736,0 -0.49539,0.231939 -0.49539,0.5c0,0.276138 0.215752,0.5 0.49539,0.5l2.00922,0c0.27359,0 0.49539,-0.231932 0.49539,-0.5l0,0l0,0zm-19.058109,0c0,0.276138 0.21575,0.5 0.49539,0.5l2.00922,0c0.2736,0 0.49539,-0.231932 0.49539,-0.5c0,-0.27614 -0.21575,-0.5 -0.49539,-0.5l-2.00922,0c-0.2736,0 -0.49539,0.231939 -0.49539,0.5l0,0l0,0zm2.79099,-6.738061c-0.19526,0.195271 -0.20099,0.50612 -0.00326,0.70385l1.42074,1.42074c0.19346,0.19346 0.51429,0.18629 0.70385,-0.00326c0.19526,-0.195271 0.20099,-0.50612 0.00326,-0.70385l-1.42074,-1.42074c-0.19346,-0.19346 -0.51429,-0.18629 -0.70385,0.00326l0,0l0,0zm-2.25373,10.20901c-0.28068,0 -0.50821,-0.23193 -0.50821,-0.5c0,-0.27614 0.22662,-0.5 0.50821,-0.5l6.07513,0l1.16666,1l1.750001,1.5l1.75,-1.5l1.16667,-1l6.075129,0c0.28067,0 0.508202,0.23193 0.508202,0.5c0,0.27614 -0.22661,0.5 -0.508202,0.5l-5.491798,0l-3.5,3l-3.500001,-3l-5.49179,0l0,0z"/>
 </g>
</svg>